<svg width="242" height="61" viewBox="0 0 242 61" fill="none" xmlns="http://www.w3.org/2000/svg">
<path d="M74.3918 23.3858C74.2718 23.5858 74.1384 23.7391 73.9918 23.8458C73.8584 23.9391 73.6918 23.9858 73.4918 23.9858C73.2651 23.9858 72.9984 23.8725 72.6918 23.6458C72.3851 23.4191 71.9984 23.1725 71.5318 22.9058C71.0784 22.6258 70.5251 22.3725 69.8718 22.1458C69.2318 21.9191 68.4518 21.8058 67.5318 21.8058C66.6651 21.8058 65.8984 21.9258 65.2318 22.1658C64.5784 22.3925 64.0251 22.7058 63.5718 23.1058C63.1318 23.5058 62.7984 23.9791 62.5718 24.5258C62.3451 25.0591 62.2318 25.6391 62.2318 26.2658C62.2318 27.0658 62.4251 27.7325 62.8118 28.2658C63.2118 28.7858 63.7318 29.2325 64.3718 29.6058C65.0251 29.9791 65.7584 30.3058 66.5718 30.5858C67.3984 30.8525 68.2384 31.1325 69.0918 31.4258C69.9584 31.7191 70.7984 32.0525 71.6118 32.4258C72.4384 32.7858 73.1718 33.2458 73.8118 33.8058C74.4651 34.3658 74.9851 35.0525 75.3718 35.8658C75.7718 36.6791 75.9718 37.6791 75.9718 38.8658C75.9718 40.1191 75.7584 41.2991 75.3318 42.4058C74.9051 43.4991 74.2784 44.4525 73.4518 45.2658C72.6384 46.0791 71.6318 46.7191 70.4318 47.1858C69.2451 47.6525 67.8918 47.8858 66.3718 47.8858C64.5051 47.8858 62.8118 47.5525 61.2918 46.8858C59.7718 46.2058 58.4718 45.2925 57.3918 44.1458L58.5118 42.3058C58.6184 42.1591 58.7451 42.0391 58.8918 41.9458C59.0518 41.8391 59.2251 41.7858 59.4118 41.7858C59.5851 41.7858 59.7784 41.8591 59.9918 42.0058C60.2184 42.1391 60.4718 42.3125 60.7518 42.5258C61.0318 42.7391 61.3518 42.9725 61.7118 43.2258C62.0718 43.4791 62.4784 43.7125 62.9318 43.9258C63.3984 44.1391 63.9251 44.3191 64.5118 44.4658C65.0984 44.5991 65.7584 44.6658 66.4918 44.6658C67.4118 44.6658 68.2318 44.5391 68.9518 44.2858C69.6718 44.0325 70.2784 43.6791 70.7718 43.2258C71.2784 42.7591 71.6651 42.2058 71.9318 41.5658C72.1984 40.9258 72.3318 40.2125 72.3318 39.4258C72.3318 38.5591 72.1318 37.8525 71.7318 37.3058C71.3451 36.7458 70.8318 36.2791 70.1918 35.9058C69.5518 35.5325 68.8184 35.2191 67.9918 34.9658C67.1651 34.6991 66.3251 34.4325 65.4718 34.1658C64.6184 33.8858 63.7784 33.5658 62.9518 33.2058C62.1251 32.8458 61.3918 32.3791 60.7518 31.8058C60.1118 31.2325 59.5918 30.5191 59.1918 29.6658C58.8051 28.7991 58.6118 27.7325 58.6118 26.4658C58.6118 25.4525 58.8051 24.4725 59.1918 23.5258C59.5918 22.5791 60.1651 21.7391 60.9118 21.0058C61.6718 20.2725 62.5984 19.6858 63.6918 19.2458C64.7984 18.8058 66.0651 18.5858 67.4918 18.5858C69.0918 18.5858 70.5451 18.8391 71.8518 19.3458C73.1718 19.8525 74.3318 20.5858 75.3318 21.5458L74.3918 23.3858ZM80.1808 47.5658V27.3058H82.3208C82.8275 27.3058 83.1408 27.5525 83.2608 28.0458L83.5208 30.1258C84.2675 29.2058 85.1075 28.4525 86.0408 27.8658C86.9742 27.2791 88.0542 26.9858 89.2808 26.9858C90.6408 26.9858 91.7408 27.3658 92.5808 28.1258C93.4342 28.8858 94.0475 29.9125 94.4208 31.2058C94.7142 30.4725 95.0875 29.8391 95.5408 29.3058C96.0075 28.7725 96.5275 28.3325 97.1008 27.9858C97.6742 27.6391 98.2808 27.3858 98.9208 27.2258C99.5742 27.0658 100.234 26.9858 100.901 26.9858C101.968 26.9858 102.914 27.1591 103.741 27.5058C104.581 27.8391 105.288 28.3325 105.861 28.9858C106.448 29.6391 106.894 30.4458 107.201 31.4058C107.508 32.3525 107.661 33.4391 107.661 34.6658V47.5658H104.081V34.6658C104.081 33.0791 103.734 31.8791 103.041 31.0658C102.348 30.2391 101.348 29.8258 100.041 29.8258C99.4542 29.8258 98.8942 29.9325 98.3608 30.1458C97.8408 30.3458 97.3808 30.6458 96.9808 31.0458C96.5808 31.4458 96.2608 31.9525 96.0208 32.5658C95.7942 33.1658 95.6808 33.8658 95.6808 34.6658V47.5658H92.1008V34.6658C92.1008 33.0391 91.7742 31.8258 91.1208 31.0258C90.4675 30.2258 89.5142 29.8258 88.2608 29.8258C87.3808 29.8258 86.5675 30.0658 85.8208 30.5458C85.0742 31.0125 84.3875 31.6525 83.7608 32.4658V47.5658H80.1808ZM124.051 38.4458C122.411 38.4991 121.011 38.6325 119.851 38.8458C118.705 39.0458 117.765 39.3125 117.031 39.6458C116.311 39.9791 115.785 40.3725 115.451 40.8258C115.131 41.2791 114.971 41.7858 114.971 42.3458C114.971 42.8791 115.058 43.3391 115.231 43.7258C115.405 44.1125 115.638 44.4325 115.931 44.6858C116.238 44.9258 116.591 45.1058 116.991 45.2258C117.405 45.3325 117.845 45.3858 118.311 45.3858C118.938 45.3858 119.511 45.3258 120.031 45.2058C120.551 45.0725 121.038 44.8858 121.491 44.6458C121.958 44.4058 122.398 44.1191 122.811 43.7858C123.238 43.4525 123.651 43.0725 124.051 42.6458V38.4458ZM112.551 30.1658C113.671 29.0858 114.878 28.2791 116.171 27.7458C117.465 27.2125 118.898 26.9458 120.471 26.9458C121.605 26.9458 122.611 27.1325 123.491 27.5058C124.371 27.8791 125.111 28.3991 125.711 29.0658C126.311 29.7325 126.765 30.5391 127.071 31.4858C127.378 32.4325 127.531 33.4725 127.531 34.6058V47.5658H125.951C125.605 47.5658 125.338 47.5125 125.151 47.4058C124.965 47.2858 124.818 47.0591 124.711 46.7258L124.311 44.8058C123.778 45.2991 123.258 45.7391 122.751 46.1258C122.245 46.4991 121.711 46.8191 121.151 47.0858C120.591 47.3391 119.991 47.5325 119.351 47.6658C118.725 47.8125 118.025 47.8858 117.251 47.8858C116.465 47.8858 115.725 47.7791 115.031 47.5658C114.338 47.3391 113.731 47.0058 113.211 46.5658C112.705 46.1258 112.298 45.5725 111.991 44.9058C111.698 44.2258 111.551 43.4258 111.551 42.5058C111.551 41.7058 111.771 40.9391 112.211 40.2058C112.651 39.4591 113.365 38.7991 114.351 38.2258C115.338 37.6525 116.625 37.1858 118.211 36.8258C119.798 36.4525 121.745 36.2391 124.051 36.1858V34.6058C124.051 33.0325 123.711 31.8458 123.031 31.0458C122.351 30.2325 121.358 29.8258 120.051 29.8258C119.171 29.8258 118.431 29.9391 117.831 30.1658C117.245 30.3791 116.731 30.6258 116.291 30.9058C115.865 31.1725 115.491 31.4191 115.171 31.6458C114.865 31.8591 114.558 31.9658 114.251 31.9658C114.011 31.9658 113.805 31.9058 113.631 31.7858C113.458 31.6525 113.311 31.4925 113.191 31.3058L112.551 30.1658ZM136.334 31.3658C136.974 29.9791 137.761 28.8991 138.694 28.1258C139.628 27.3391 140.768 26.9458 142.114 26.9458C142.541 26.9458 142.948 26.9925 143.334 27.0858C143.734 27.1791 144.088 27.3258 144.394 27.5258L144.134 30.1858C144.054 30.5191 143.854 30.6858 143.534 30.6858C143.348 30.6858 143.074 30.6458 142.714 30.5658C142.354 30.4858 141.948 30.4458 141.494 30.4458C140.854 30.4458 140.281 30.5391 139.774 30.7258C139.281 30.9125 138.834 31.1925 138.434 31.5658C138.048 31.9258 137.694 32.3791 137.374 32.9258C137.068 33.4591 136.788 34.0725 136.534 34.7658V47.5658H132.954V27.3058H134.994C135.381 27.3058 135.648 27.3791 135.794 27.5258C135.941 27.6725 136.041 27.9258 136.094 28.2858L136.334 31.3658ZM153.745 47.8858C152.145 47.8858 150.911 47.4391 150.045 46.5458C149.191 45.6525 148.765 44.3658 148.765 42.6858V30.2858H146.325C146.111 30.2858 145.931 30.2258 145.785 30.1058C145.638 29.9725 145.565 29.7725 145.565 29.5058V28.0858L148.885 27.6658L149.705 21.4058C149.745 21.2058 149.831 21.0458 149.965 20.9258C150.111 20.7925 150.298 20.7258 150.525 20.7258H152.325V27.7058H158.185V30.2858H152.325V42.4458C152.325 43.2991 152.531 43.9325 152.945 44.3458C153.358 44.7591 153.891 44.9658 154.545 44.9658C154.918 44.9658 155.238 44.9191 155.505 44.8258C155.785 44.7191 156.025 44.6058 156.225 44.4858C156.425 44.3658 156.591 44.2591 156.725 44.1658C156.871 44.0591 156.998 44.0058 157.105 44.0058C157.291 44.0058 157.458 44.1191 157.605 44.3458L158.645 46.0458C158.031 46.6191 157.291 47.0725 156.425 47.4058C155.558 47.7258 154.665 47.8858 153.745 47.8858ZM182.821 41.6458C183.034 41.6458 183.221 41.7325 183.381 41.9058L184.921 43.5658C183.747 44.9258 182.321 45.9858 180.641 46.7458C178.974 47.5058 176.954 47.8858 174.581 47.8858C172.527 47.8858 170.661 47.5325 168.981 46.8258C167.301 46.1058 165.867 45.1058 164.681 43.8258C163.494 42.5325 162.574 40.9858 161.921 39.1858C161.267 37.3858 160.941 35.4058 160.941 33.2458C160.941 31.0858 161.281 29.1058 161.961 27.3058C162.641 25.5058 163.594 23.9591 164.821 22.6658C166.061 21.3725 167.541 20.3725 169.261 19.6658C170.981 18.9458 172.881 18.5858 174.961 18.5858C177.001 18.5858 178.801 18.9125 180.361 19.5658C181.921 20.2191 183.294 21.1058 184.481 22.2258L183.201 24.0058C183.121 24.1391 183.014 24.2525 182.881 24.3458C182.761 24.4258 182.594 24.4658 182.381 24.4658C182.141 24.4658 181.847 24.3391 181.501 24.0858C181.154 23.8191 180.701 23.5258 180.141 23.2058C179.581 22.8858 178.881 22.5991 178.041 22.3458C177.201 22.0791 176.167 21.9458 174.941 21.9458C173.461 21.9458 172.107 22.2058 170.881 22.7258C169.654 23.2325 168.594 23.9725 167.701 24.9458C166.821 25.9191 166.134 27.1058 165.641 28.5058C165.147 29.9058 164.901 31.4858 164.901 33.2458C164.901 35.0325 165.154 36.6258 165.661 38.0258C166.181 39.4258 166.881 40.6125 167.761 41.5858C168.654 42.5458 169.701 43.2791 170.901 43.7858C172.114 44.2925 173.421 44.5458 174.821 44.5458C175.674 44.5458 176.441 44.4991 177.121 44.4058C177.814 44.2991 178.447 44.1391 179.021 43.9258C179.607 43.7125 180.147 43.4458 180.641 43.1258C181.147 42.7925 181.647 42.3991 182.141 41.9458C182.367 41.7458 182.594 41.6458 182.821 41.6458ZM199.559 38.4458C197.919 38.4991 196.519 38.6325 195.359 38.8458C194.213 39.0458 193.273 39.3125 192.539 39.6458C191.819 39.9791 191.293 40.3725 190.959 40.8258C190.639 41.2791 190.479 41.7858 190.479 42.3458C190.479 42.8791 190.566 43.3391 190.739 43.7258C190.913 44.1125 191.146 44.4325 191.439 44.6858C191.746 44.9258 192.099 45.1058 192.499 45.2258C192.913 45.3325 193.353 45.3858 193.819 45.3858C194.446 45.3858 195.019 45.3258 195.539 45.2058C196.059 45.0725 196.546 44.8858 196.999 44.6458C197.466 44.4058 197.906 44.1191 198.319 43.7858C198.746 43.4525 199.159 43.0725 199.559 42.6458V38.4458ZM188.059 30.1658C189.179 29.0858 190.386 28.2791 191.679 27.7458C192.973 27.2125 194.406 26.9458 195.979 26.9458C197.113 26.9458 198.119 27.1325 198.999 27.5058C199.879 27.8791 200.619 28.3991 201.219 29.0658C201.819 29.7325 202.273 30.5391 202.579 31.4858C202.886 32.4325 203.039 33.4725 203.039 34.6058V47.5658H201.459C201.113 47.5658 200.846 47.5125 200.659 47.4058C200.473 47.2858 200.326 47.0591 200.219 46.7258L199.819 44.8058C199.286 45.2991 198.766 45.7391 198.259 46.1258C197.753 46.4991 197.219 46.8191 196.659 47.0858C196.099 47.3391 195.499 47.5325 194.859 47.6658C194.233 47.8125 193.533 47.8858 192.759 47.8858C191.973 47.8858 191.233 47.7791 190.539 47.5658C189.846 47.3391 189.239 47.0058 188.719 46.5658C188.213 46.1258 187.806 45.5725 187.499 44.9058C187.206 44.2258 187.059 43.4258 187.059 42.5058C187.059 41.7058 187.279 40.9391 187.719 40.2058C188.159 39.4591 188.873 38.7991 189.859 38.2258C190.846 37.6525 192.133 37.1858 193.719 36.8258C195.306 36.4525 197.253 36.2391 199.559 36.1858V34.6058C199.559 33.0325 199.219 31.8458 198.539 31.0458C197.859 30.2325 196.866 29.8258 195.559 29.8258C194.679 29.8258 193.939 29.9391 193.339 30.1658C192.753 30.3791 192.239 30.6258 191.799 30.9058C191.373 31.1725 190.999 31.4191 190.679 31.6458C190.373 31.8591 190.066 31.9658 189.759 31.9658C189.519 31.9658 189.313 31.9058 189.139 31.7858C188.966 31.6525 188.819 31.4925 188.699 31.3058L188.059 30.1658ZM211.842 31.3658C212.482 29.9791 213.269 28.8991 214.202 28.1258C215.135 27.3391 216.275 26.9458 217.622 26.9458C218.049 26.9458 218.455 26.9925 218.842 27.0858C219.242 27.1791 219.595 27.3258 219.902 27.5258L219.642 30.1858C219.562 30.5191 219.362 30.6858 219.042 30.6858C218.855 30.6858 218.582 30.6458 218.222 30.5658C217.862 30.4858 217.455 30.4458 217.002 30.4458C216.362 30.4458 215.789 30.5391 215.282 30.7258C214.789 30.9125 214.342 31.1925 213.942 31.5658C213.555 31.9258 213.202 32.3791 212.882 32.9258C212.575 33.4591 212.295 34.0725 212.042 34.7658V47.5658H208.462V27.3058H210.502C210.889 27.3058 211.155 27.3791 211.302 27.5258C211.449 27.6725 211.549 27.9258 211.602 28.2858L211.842 31.3658ZM235.772 35.2258C235.772 34.3991 235.652 33.6458 235.412 32.9658C235.185 32.2725 234.845 31.6791 234.392 31.1858C233.952 30.6791 233.412 30.2925 232.772 30.0258C232.132 29.7458 231.405 29.6058 230.592 29.6058C228.885 29.6058 227.532 30.1058 226.532 31.1058C225.545 32.0925 224.932 33.4658 224.692 35.2258H235.772ZM238.652 44.7258C238.212 45.2591 237.685 45.7258 237.072 46.1258C236.459 46.5125 235.799 46.8325 235.092 47.0858C234.399 47.3391 233.679 47.5258 232.932 47.6458C232.185 47.7791 231.445 47.8458 230.712 47.8458C229.312 47.8458 228.019 47.6125 226.832 47.1458C225.659 46.6658 224.639 45.9725 223.772 45.0658C222.919 44.1458 222.252 43.0125 221.772 41.6658C221.292 40.3191 221.052 38.7725 221.052 37.0258C221.052 35.6125 221.265 34.2925 221.692 33.0658C222.132 31.8391 222.759 30.7791 223.572 29.8858C224.385 28.9791 225.379 28.2725 226.552 27.7658C227.725 27.2458 229.045 26.9858 230.512 26.9858C231.725 26.9858 232.845 27.1925 233.872 27.6058C234.912 28.0058 235.805 28.5925 236.552 29.3658C237.312 30.1258 237.905 31.0725 238.332 32.2058C238.759 33.3258 238.972 34.6058 238.972 36.0458C238.972 36.6058 238.912 36.9791 238.792 37.1658C238.672 37.3525 238.445 37.4458 238.112 37.4458H224.572C224.612 38.7258 224.785 39.8391 225.092 40.7858C225.412 41.7325 225.852 42.5258 226.412 43.1658C226.972 43.7925 227.639 44.2658 228.412 44.5858C229.185 44.8925 230.052 45.0458 231.012 45.0458C231.905 45.0458 232.672 44.9458 233.312 44.7458C233.965 44.5325 234.525 44.3058 234.992 44.0658C235.459 43.8258 235.845 43.6058 236.152 43.4058C236.472 43.1925 236.745 43.0858 236.972 43.0858C237.265 43.0858 237.492 43.1991 237.652 43.4258L238.652 44.7258Z" fill="#7250FD"/>
<path d="M47.5971 26.0315C46.0291 24.7495 43.8084 24.3392 41.939 24.9858C41.438 25.1593 40.9729 25.4026 40.5561 25.7091C39.4932 26.491 37.1335 28.8382 35.2636 31.1612V13.2551C35.2636 11.7331 34.6379 10.2456 33.5472 9.17338C32.4643 8.10911 31.0418 7.53511 29.5492 7.56302C28.8714 7.57511 28.2221 7.70954 27.622 7.94444V6.19547C27.622 4.53905 26.941 2.91986 25.753 1.75232C24.5757 0.595019 23.0352 -0.0287514 21.4057 0.00101847C18.1571 0.0573021 15.5048 2.69798 15.4076 5.92614C14.7038 5.60705 13.9395 5.42796 13.1483 5.40424C11.498 5.35586 9.86341 5.99452 8.66518 7.15787C7.49159 8.29703 6.84503 9.80087 6.84503 11.388L6.84084 13.0839C6.33429 12.9174 5.79425 12.8262 5.23281 12.8262C2.39956 12.8262 0.0947266 15.1311 0.0947266 17.9638L0.0965872 43.9929L0.100774 44.1162C0.337537 47.5322 1.05248 50.4571 2.22652 52.8099C3.32708 55.0156 4.86255 56.7916 6.79014 58.0884C10.5835 60.6412 15.2694 60.9687 18.9279 60.9687C26.1121 60.9687 32.5755 57.3967 35.8078 51.6437C36.2009 51.0102 37.2368 49.3812 38.3554 47.6243C39.4448 45.9126 40.4584 44.3352 41.352 42.9435C41.8432 42.1783 42.2902 41.4825 42.6781 40.8759C44.1233 38.6157 45.6635 36.4244 47.2562 34.3624C47.8469 33.5976 48.0288 33.3902 48.0702 33.3446C48.8158 32.531 49.2856 31.5352 49.4289 30.4639C49.6545 28.7833 48.9865 27.1674 47.5971 26.0315ZM45.8844 29.9895C45.8384 30.3318 45.6825 30.6565 45.4337 30.9281C45.3039 31.07 45.0718 31.3398 44.4262 32.1761C42.7688 34.3214 41.1668 36.6002 39.6649 38.9492C39.2778 39.5544 38.8327 40.2475 38.3424 41.0108C37.447 42.4053 36.432 43.9864 35.3385 45.7037C34.1937 47.502 33.1341 49.1677 32.7462 49.7943L32.7057 49.8631C30.1115 54.5072 24.8325 57.3921 18.9283 57.3921C15.7778 57.3921 11.7775 57.1339 8.78705 55.1217C5.73564 53.0685 4.06295 49.4077 3.67315 43.9301L3.67129 17.9643C3.67129 17.1033 4.37181 16.4028 5.23281 16.4028C6.09893 16.4028 6.80363 17.1033 6.80363 17.9643V27.7051C6.80363 27.7339 6.80689 27.7618 6.80782 27.7907C6.80968 27.8223 6.80968 27.8544 6.81294 27.886C6.81573 27.9144 6.82131 27.9418 6.82549 27.9698C6.83015 28.0009 6.8334 28.0326 6.83945 28.0637C6.8455 28.0916 6.85387 28.1191 6.86085 28.1465C6.86829 28.1758 6.87434 28.2061 6.88364 28.2349C6.89201 28.2628 6.90317 28.2898 6.91341 28.3168C6.92318 28.3442 6.93201 28.3721 6.94364 28.3991C6.95481 28.4261 6.9683 28.4517 6.98086 28.4777C6.99341 28.5038 7.00504 28.5303 7.01853 28.5559C7.03202 28.581 7.0483 28.6052 7.06319 28.6298C7.07807 28.6545 7.09203 28.6796 7.10784 28.7033C7.12412 28.727 7.14226 28.7494 7.15947 28.7721C7.17669 28.7954 7.1925 28.8191 7.21064 28.841C7.22878 28.8629 7.24878 28.8829 7.26739 28.9038C7.28693 28.9252 7.30553 28.948 7.326 28.9684C7.346 28.988 7.36693 29.0057 7.38787 29.0247C7.40926 29.0443 7.43019 29.0652 7.45299 29.0838C7.47438 29.1015 7.49718 29.1173 7.5195 29.134C7.54323 29.1517 7.56602 29.1703 7.59021 29.1871C7.613 29.2024 7.63719 29.2154 7.66044 29.2294C7.68603 29.2452 7.71115 29.262 7.73766 29.2768C7.76185 29.2899 7.78743 29.3006 7.81208 29.3127C7.83906 29.3261 7.86604 29.3401 7.89395 29.3522C7.91954 29.3634 7.94698 29.3717 7.97303 29.3815C8.0014 29.3917 8.02931 29.4034 8.05815 29.4127C8.08559 29.421 8.11443 29.4271 8.14234 29.4345C8.17165 29.442 8.20002 29.4508 8.22933 29.4569C8.2591 29.4629 8.28887 29.4662 8.31864 29.4708C8.34841 29.475 8.37725 29.481 8.40702 29.4843C8.43679 29.4871 8.46749 29.4876 8.49772 29.4889C8.52749 29.4903 8.55726 29.4936 8.58749 29.4936C8.58889 29.4936 8.59075 29.4936 8.59215 29.4936C8.65401 29.4936 8.71495 29.4903 8.77495 29.4843C8.801 29.482 8.82658 29.4764 8.85263 29.4727C8.88566 29.468 8.91961 29.4643 8.95218 29.4573C8.9866 29.4503 9.01962 29.4406 9.05311 29.4317C9.07637 29.4252 9.10056 29.4206 9.12335 29.4136C9.16056 29.402 9.19685 29.3875 9.23313 29.3736C9.2508 29.3666 9.26987 29.361 9.28755 29.3536C9.32383 29.3382 9.35825 29.3201 9.39314 29.3029C9.40989 29.2945 9.4271 29.2875 9.44384 29.2787C9.4764 29.261 9.5071 29.2406 9.53827 29.221C9.55594 29.2103 9.57409 29.2006 9.59083 29.1889C9.61967 29.1699 9.64711 29.148 9.67456 29.1266C9.6927 29.1131 9.71131 29.1005 9.72852 29.0861C9.7541 29.0657 9.77736 29.0424 9.80155 29.0201C9.81969 29.0038 9.83829 28.988 9.85597 28.9712C9.8783 28.9489 9.8983 28.9247 9.91923 28.9015C9.93644 28.8824 9.95505 28.8638 9.97133 28.8442C9.98993 28.8215 10.0067 28.7973 10.0244 28.7735C10.0411 28.7512 10.0588 28.7298 10.0741 28.7066C10.0904 28.6828 10.1039 28.6582 10.1188 28.6335C10.1337 28.6089 10.1499 28.5847 10.1639 28.5596C10.1774 28.5345 10.1886 28.5084 10.2011 28.4828C10.2137 28.4563 10.2276 28.4303 10.2393 28.4033C10.2504 28.3772 10.2588 28.3498 10.2686 28.3233C10.2793 28.2954 10.2904 28.2679 10.2997 28.2391C10.3081 28.2116 10.3141 28.1837 10.3211 28.1558C10.3286 28.1265 10.3374 28.0977 10.3439 28.0679C10.3495 28.04 10.3528 28.0107 10.3569 27.9819C10.3621 27.9516 10.3676 27.9214 10.3709 27.8907C10.3741 27.8618 10.3741 27.8321 10.3755 27.8028C10.3774 27.7716 10.3807 27.7414 10.3807 27.7102L10.4221 11.3926C10.4221 10.7768 10.683 10.1842 11.1565 9.72412C11.6654 9.23059 12.3538 8.95801 13.0427 8.97941C14.3331 9.01801 15.3829 10.1404 15.3829 11.4843L15.4034 27.6107C15.4034 27.6432 15.4066 27.6749 15.4085 27.7065C15.4099 27.7349 15.4099 27.7642 15.4127 27.7921C15.4159 27.8256 15.4225 27.8577 15.4276 27.8902C15.4318 27.9167 15.4346 27.9437 15.4397 27.9698C15.4471 28.0051 15.4573 28.0395 15.4666 28.074C15.4727 28.0963 15.4773 28.1191 15.4839 28.1409C15.4955 28.1781 15.5104 28.2144 15.5243 28.2507C15.5313 28.2689 15.5364 28.2875 15.5439 28.3051C15.5606 28.3437 15.5797 28.3814 15.5988 28.4186C15.6062 28.4326 15.6118 28.4475 15.6192 28.461C15.6401 28.4996 15.6639 28.5363 15.6871 28.5726C15.6946 28.5847 15.7011 28.5968 15.709 28.6084C15.7336 28.6452 15.7606 28.6796 15.7876 28.714C15.796 28.7247 15.8034 28.7359 15.8118 28.7461C15.842 28.7828 15.8746 28.8173 15.9076 28.8512C15.9146 28.8587 15.9202 28.8661 15.9271 28.8731C15.9611 28.907 15.9974 28.9387 16.0341 28.9698C16.0411 28.9759 16.0472 28.9824 16.0541 28.9884C16.0909 29.0187 16.129 29.0461 16.1676 29.0731C16.176 29.0791 16.1834 29.0857 16.1918 29.0912C16.2309 29.1178 16.2718 29.1415 16.3128 29.1647C16.3216 29.1699 16.33 29.1759 16.3393 29.181C16.3821 29.2038 16.4263 29.2243 16.4709 29.2443C16.4793 29.248 16.4872 29.2527 16.4956 29.2564C16.5412 29.2754 16.5881 29.2917 16.6356 29.3075C16.6439 29.3099 16.6514 29.3136 16.6598 29.3164C16.7067 29.3308 16.7547 29.3424 16.8026 29.3531C16.8123 29.355 16.8216 29.3582 16.8314 29.3606C16.9477 29.3843 17.0682 29.3968 17.1914 29.3968C17.1924 29.3968 17.1933 29.3968 17.1942 29.3968C17.2254 29.3968 17.2561 29.3936 17.2868 29.3922C17.3166 29.3903 17.3463 29.3903 17.3756 29.3875C17.4082 29.3838 17.4394 29.3778 17.4715 29.3727C17.4984 29.3685 17.5263 29.3657 17.5533 29.3601C17.5854 29.3536 17.6166 29.3443 17.6482 29.3359C17.6738 29.3289 17.6994 29.3238 17.7245 29.3159C17.7566 29.3061 17.7873 29.2936 17.8185 29.2815C17.8417 29.2727 17.8659 29.2657 17.8887 29.2559C17.9208 29.242 17.952 29.2257 17.9831 29.2103C18.0036 29.2001 18.025 29.1912 18.045 29.1806C18.0757 29.1638 18.105 29.1443 18.1348 29.1261C18.1538 29.114 18.1738 29.1033 18.1924 29.0908C18.2208 29.0717 18.2473 29.0503 18.2743 29.0294C18.2929 29.0154 18.312 29.0024 18.3301 28.9875C18.3557 28.9666 18.3799 28.9429 18.4046 28.9201C18.4218 28.9043 18.4399 28.8889 18.4571 28.8722C18.4799 28.8489 18.5013 28.8238 18.5232 28.7996C18.5394 28.7815 18.5567 28.7642 18.5725 28.7452C18.592 28.721 18.6097 28.6954 18.6278 28.6707C18.6436 28.6493 18.6604 28.6289 18.6753 28.6075C18.692 28.5828 18.706 28.5568 18.7213 28.5312C18.7357 28.5075 18.7516 28.4842 18.7646 28.46C18.7785 28.4344 18.7897 28.4075 18.8023 28.3814C18.8148 28.3554 18.8288 28.3303 18.8399 28.3033C18.8506 28.2777 18.8595 28.2507 18.8688 28.2242C18.8795 28.1958 18.8911 28.1679 18.8999 28.1391C18.9083 28.1112 18.9144 28.0828 18.9218 28.0544C18.9292 28.0256 18.9381 27.9972 18.9437 27.9679C18.9497 27.9386 18.953 27.9084 18.9576 27.8791C18.9618 27.8493 18.9679 27.82 18.9706 27.7902C18.9739 27.76 18.9739 27.7293 18.9753 27.6986C18.9772 27.6683 18.9799 27.639 18.9799 27.6083V6.10988C18.9799 4.73674 20.0963 3.60084 21.4681 3.57712C22.13 3.56781 22.7589 3.82365 23.2468 4.30322C23.7547 4.80233 24.0459 5.49215 24.0459 6.19547V27.7069C24.0459 27.7395 24.0492 27.7711 24.0511 27.8032C24.0524 27.8316 24.0524 27.8604 24.0552 27.8888C24.0585 27.9205 24.065 27.9512 24.0697 27.9823C24.0743 28.0107 24.0771 28.0391 24.0827 28.0665C24.0892 28.0977 24.0985 28.1279 24.1064 28.1586C24.1134 28.1851 24.1185 28.2116 24.1269 28.2377C24.1371 28.2707 24.1501 28.3028 24.1622 28.3349C24.1706 28.3572 24.1776 28.38 24.1869 28.4019C24.2013 28.4354 24.218 28.4675 24.2343 28.5C24.2436 28.5191 24.252 28.5391 24.2622 28.5582C24.2799 28.5912 24.3004 28.6224 24.3204 28.654C24.3311 28.6707 24.3404 28.6889 24.352 28.7056C24.3734 28.7373 24.3971 28.7675 24.4208 28.7977C24.4325 28.8126 24.4427 28.8284 24.4548 28.8428C24.4809 28.8749 24.5097 28.9047 24.5381 28.9349C24.5492 28.9461 24.559 28.9587 24.5702 28.9698C24.5995 28.9996 24.6311 29.0266 24.6627 29.054C24.6744 29.0643 24.6851 29.0754 24.6971 29.0852C24.7325 29.1145 24.7697 29.141 24.8069 29.1675C24.8162 29.174 24.8251 29.1815 24.8348 29.1885C24.8748 29.2154 24.9167 29.2401 24.959 29.2638C24.9669 29.268 24.9739 29.2736 24.9818 29.2778C25.0283 29.3029 25.0758 29.3252 25.1246 29.3466C25.1293 29.3485 25.1335 29.3513 25.1381 29.3531C25.1888 29.3745 25.2409 29.3931 25.2939 29.4099C25.2967 29.4113 25.2995 29.4122 25.3028 29.4131C25.4139 29.448 25.5298 29.4717 25.6493 29.4843C25.6502 29.4843 25.6507 29.4843 25.6516 29.4843C25.7116 29.4903 25.7726 29.4936 25.8344 29.4936C25.8349 29.4936 25.8354 29.4936 25.8363 29.4936C25.8679 29.4936 25.8991 29.4903 25.9307 29.4889C25.96 29.4871 25.9893 29.4871 26.0182 29.4843C26.0512 29.481 26.0833 29.4745 26.1159 29.4694C26.1424 29.4652 26.1694 29.4624 26.1959 29.4569C26.2308 29.4499 26.2642 29.4396 26.2982 29.4308C26.321 29.4248 26.3447 29.4201 26.367 29.4131C26.4033 29.4015 26.4382 29.3875 26.4736 29.3741C26.4926 29.3666 26.5122 29.3606 26.5312 29.3527C26.5671 29.3373 26.6015 29.3196 26.6364 29.302C26.6531 29.2936 26.6708 29.2866 26.6875 29.2773C26.7215 29.2587 26.7541 29.2378 26.7871 29.2168C26.8029 29.2071 26.8192 29.1982 26.835 29.1875C26.8685 29.1652 26.8996 29.1401 26.9313 29.1154C26.9448 29.1052 26.9592 29.0954 26.9727 29.0847C27.0038 29.0587 27.0331 29.0303 27.0629 29.0024C27.075 28.9912 27.088 28.981 27.0992 28.9694C27.128 28.9405 27.155 28.9098 27.1815 28.8787C27.1927 28.8666 27.2043 28.8549 27.215 28.8424C27.2406 28.8112 27.2639 28.7782 27.2871 28.7456C27.2969 28.7317 27.3081 28.7187 27.3178 28.7047C27.3397 28.6721 27.3592 28.6382 27.3788 28.6042C27.3881 28.5884 27.3988 28.5735 27.4076 28.5572C27.4262 28.5228 27.442 28.487 27.4583 28.4512C27.4662 28.4344 27.4755 28.4182 27.4825 28.401C27.4974 28.3661 27.5095 28.3298 27.522 28.294C27.5285 28.2749 27.5369 28.2563 27.543 28.2363C27.5532 28.2023 27.5611 28.1665 27.5699 28.1316C27.5751 28.1093 27.582 28.0874 27.5867 28.0651C27.5937 28.0307 27.5978 27.9949 27.603 27.96C27.6062 27.9358 27.6113 27.9121 27.6137 27.8874C27.6174 27.8549 27.6174 27.8214 27.6188 27.7879C27.6202 27.7604 27.623 27.7335 27.623 27.7051V12.9448C27.7393 11.9471 28.5863 11.1568 29.612 11.1391C30.139 11.1303 30.6479 11.3377 31.0409 11.7243C31.4521 12.128 31.6879 12.6862 31.6879 13.2551V34.3633L31.6889 34.4433C31.6986 35.602 32.4596 36.5811 33.582 36.8798C34.697 37.1761 35.8362 36.7077 36.4223 35.7039L36.4334 35.6839C37.8354 33.2344 41.5827 29.395 42.6767 28.5903C42.8032 28.4968 42.9488 28.4219 43.1093 28.3661C43.8219 28.12 44.7155 28.2944 45.3341 28.8005C45.6253 29.0391 45.9579 29.4392 45.8844 29.9895Z" fill="#7250FD"/>
<path d="M14.6341 51.6623L14.6341 51.6623L14.6337 51.6619L14.63 51.6586L14.6063 51.6384C12.2248 49.5968 10.1211 47.7934 8.64879 46.0062L8.64878 46.0062C6.97938 43.9798 6.16797 42.0127 6.16797 39.8398C6.16797 37.7547 6.87913 35.8108 8.19236 34.3778L8.19238 34.3777C9.52318 32.9257 11.3523 32.1255 13.3341 32.1255C14.8253 32.1255 16.1943 32.6023 17.3904 33.5329L17.3905 33.5329C17.826 33.8718 18.2298 34.2641 18.5992 34.7048C18.9686 34.2641 19.3724 33.8718 19.8082 33.5328C21.0043 32.6023 22.3732 32.1255 23.8644 32.1255C25.8461 32.1255 27.6754 32.9257 29.0062 34.3777L29.0062 34.3778C30.3194 35.8108 31.0304 37.7547 31.0304 39.8398C31.0304 42.0126 30.2192 43.9797 28.5498 46.006C27.0778 47.7929 24.9751 49.5956 22.5947 51.6364L22.5654 51.6615L22.5653 51.6616C21.7437 52.3657 20.8152 53.1618 19.8519 54.0093L14.6341 51.6623ZM14.6341 51.6623L14.6379 51.6656M14.6341 51.6623L14.6379 51.6656M14.6379 51.6656C15.458 52.3686 16.385 53.1634 17.3462 54.0088M14.6379 51.6656L17.3462 54.0088M10.4967 44.4732L10.4967 44.4732C11.8297 46.0912 13.8235 47.8028 16.1889 49.8307L16.1912 49.8327L16.1954 49.8362L16.1954 49.8362C16.925 50.4617 17.743 51.163 18.5978 51.911C19.457 51.1616 20.2764 50.4591 21.0078 49.8322C23.3741 47.8034 25.3685 46.0917 26.7018 44.4732C28.0649 42.8184 28.6328 41.4 28.6328 39.8398C28.6328 38.3313 28.1289 36.9751 27.2412 36.0065C26.3697 35.0555 25.1738 34.5317 23.8644 34.5317C22.9182 34.5317 22.0518 34.8318 21.2772 35.4343L10.4967 44.4732ZM10.4967 44.4732C9.13347 42.8184 8.56561 41.4 8.56561 39.8398C8.56561 38.3313 9.06941 36.9752 9.95709 36.0065L10.4967 44.4732ZM19.7871 37.1725L19.7871 37.1725C19.5367 37.5945 19.0906 37.8505 18.5992 37.8505C18.1078 37.8505 17.6617 37.5945 17.4113 37.1725L17.4112 37.1724C17.1159 36.6743 16.62 35.978 15.9213 35.4344L19.7871 37.1725ZM19.7871 37.1725C20.0827 36.6743 20.5786 35.978 21.2771 35.4344L19.7871 37.1725ZM17.3462 54.0088C17.6926 54.3141 18.1376 54.4824 18.5992 54.4824M17.3462 54.0088L18.5992 54.4824M18.5992 54.4824C19.0605 54.4824 19.5055 54.3142 19.8517 54.0095L18.5992 54.4824ZM13.3341 34.5317C12.0246 34.5317 10.8289 35.0555 9.95713 36.0065L13.3341 34.5317ZM13.3341 34.5317C14.2802 34.5317 15.1466 34.8318 15.9212 35.4344L13.3341 34.5317Z" fill="#7250FD" stroke="#7250FD"/>
</svg>
